<svg width="39" height="39" viewBox="0 0 39 39" fill="none" xmlns="http://www.w3.org/2000/svg">
<path d="M23.0894 17.3364C21.9683 17.3364 21.0833 18.3001 21.0833 19.4998C21.0833 20.6995 21.988 21.6632 23.0894 21.6632C24.2104 21.6632 25.0954 20.6995 25.0954 19.4998C25.0954 18.3001 24.1907 17.3364 23.0894 17.3364ZM15.9108 17.3364C14.7898 17.3364 13.9048 18.3001 13.9048 19.4998C13.9048 20.6995 14.8095 21.6632 15.9108 21.6632C17.0319 21.6632 17.9169 20.6995 17.9169 19.4998C17.9366 18.3001 17.0319 17.3364 15.9108 17.3364Z" fill="#65AFFF"/>
<path d="M32.6673 0H6.31326C4.09087 0 2.28149 1.80938 2.28149 4.03177V30.3858C2.28149 32.6082 4.09087 34.4175 6.31326 34.4175H28.6158L27.5735 30.8185L30.0909 33.1392L32.4706 35.3222L36.7187 39V4.03177C36.6991 1.80938 34.8897 0 32.6673 0ZM25.0757 25.469C25.0757 25.469 24.3677 24.6233 23.7777 23.8956C26.3541 23.1679 27.3375 21.5749 27.3375 21.5749C26.5311 22.1059 25.7641 22.4796 25.0757 22.7353C24.0924 23.1483 23.1484 23.4039 22.224 23.5809C20.336 23.9349 18.6052 23.8366 17.1302 23.5613C16.0092 23.3449 15.0455 23.0499 14.2391 22.7156C13.7868 22.5386 13.2951 22.3223 12.8034 22.0469C12.7444 22.0076 12.6854 21.9879 12.6264 21.9486C12.5871 21.9289 12.5674 21.9092 12.5478 21.9092C12.1937 21.7126 11.9971 21.5749 11.9971 21.5749C11.9971 21.5749 12.9411 23.1286 15.4388 23.876C14.8488 24.6233 14.1211 25.4887 14.1211 25.4887C9.77469 25.351 8.12264 22.5189 8.12264 22.5189C8.12264 16.2451 10.9547 11.1513 10.9547 11.1513C13.7868 9.04692 16.4615 9.10592 16.4615 9.10592L16.6582 9.34192C13.1181 10.3449 11.5054 11.8987 11.5054 11.8987C11.5054 11.8987 11.9381 11.6626 12.6658 11.348C14.7701 10.4236 16.4419 10.1876 17.1302 10.1089C17.2482 10.0893 17.3465 10.0696 17.4646 10.0696C18.6642 9.91227 20.0213 9.87294 21.4373 10.0303C23.3057 10.2466 25.3118 10.7973 27.3571 11.8987C27.3571 11.8987 25.8034 10.4236 22.46 9.42059L22.7354 9.10592C22.7354 9.10592 25.4298 9.04692 28.2422 11.1513C28.2422 11.1513 31.0742 16.2451 31.0742 22.5189C31.0742 22.4993 29.4222 25.3313 25.0757 25.469Z" fill="#65AFFF"/>
</svg>
