<svg width="39" height="39" viewBox="0 0 39 39" fill="none" xmlns="http://www.w3.org/2000/svg">
<path d="M11.4239 0.136527C9.34908 0.234352 7.93224 0.565527 6.69351 1.05205C5.41171 1.55174 4.32507 2.22205 3.24396 3.30706C2.16301 4.39208 1.49708 5.47936 1.00113 6.76344C0.521108 8.00461 0.195783 9.42275 0.104133 11.4987C0.0124826 13.5746 -0.00782992 14.242 0.00240758 19.5376C0.0124826 24.8328 0.0358826 25.4966 0.13647 27.5769C0.235595 29.6512 0.56547 31.0678 1.05216 32.3068C1.55266 33.5888 2.22216 34.6749 3.30766 35.7564C4.39299 36.8378 5.47947 37.5021 6.76647 37.9989C8.00667 38.4782 9.42513 38.805 11.5007 38.8959C13.5764 38.9869 14.2444 39.008 19.5383 38.9978C24.8322 38.9877 25.4988 38.9641 27.5785 38.8655C29.6585 38.7668 31.0674 38.4345 32.3069 37.9501C33.5889 37.4486 34.6758 36.7801 35.7565 35.6945C36.8371 34.6086 37.5025 33.5205 37.9982 32.2358C38.4787 30.9956 38.8051 29.5773 38.8952 27.5032C38.9862 25.4217 39.0076 24.7572 38.9975 19.4627C38.9873 14.1679 38.9634 13.5041 38.8648 11.4246C38.7661 9.34508 38.4358 7.93295 37.9494 6.69308C37.4483 5.41111 36.7794 4.32578 35.6946 3.24353C34.6095 2.16128 33.5205 1.49633 32.2364 1.00184C30.9952 0.521652 29.5777 0.19454 27.5021 0.10484C25.4265 0.0151398 24.7585 -0.00809772 19.4626 0.00230228C14.1667 0.0123773 13.5037 0.0351273 11.4239 0.136527ZM11.6517 35.3878C9.75046 35.3051 8.71809 34.9892 8.03007 34.7248C7.11909 34.3738 6.47007 33.9495 5.78448 33.2704C5.09873 32.5915 4.67769 31.9402 4.32198 31.0312C4.05483 30.3432 3.73308 29.3119 3.64419 27.4107C3.54751 25.3559 3.52719 24.7389 3.51582 19.5327C3.50444 14.3267 3.52443 13.7103 3.61446 11.6547C3.69571 9.75506 4.01356 8.72157 4.27746 8.03386C4.62846 7.12175 5.05128 6.47386 5.73183 5.78876C6.41238 5.1035 7.06173 4.68149 7.97157 4.32578C8.65894 4.05749 9.69001 3.7385 11.5904 3.64799C13.6469 3.55049 14.2631 3.53099 19.4684 3.51961C24.6738 3.50824 25.2916 3.52774 27.3489 3.61841C29.2485 3.70096 30.2825 4.01573 30.9694 4.28141C31.8807 4.63241 32.5294 5.05394 33.2145 5.73579C33.8997 6.41731 34.3221 7.06439 34.6778 7.97618C34.9464 8.66144 35.2656 9.69218 35.3553 11.5939C35.4531 13.6504 35.4753 14.267 35.4846 19.4719C35.494 24.6768 35.4757 25.2949 35.3855 27.3499C35.3026 29.2512 34.9874 30.2839 34.7225 30.9727C34.3715 31.8833 33.9485 32.5327 33.2675 33.2175C32.5866 33.9024 31.938 34.3243 31.0277 34.68C30.3413 34.9479 29.309 35.2677 27.4101 35.3582C25.3535 35.4549 24.7373 35.4752 19.53 35.4866C14.3227 35.498 13.7081 35.4769 11.6517 35.3878ZM27.5486 9.07793C27.5494 9.54078 27.6874 9.993 27.9452 10.3774C28.203 10.7618 28.569 11.0611 28.9969 11.2375C29.4249 11.4139 29.8955 11.4593 30.3493 11.3682C30.8031 11.2771 31.2196 11.0534 31.5463 10.7255C31.873 10.3976 32.0951 9.98024 32.1845 9.52611C32.2739 9.07198 32.2267 8.60153 32.0487 8.17427C31.8707 7.747 31.57 7.38211 31.1847 7.12575C30.7993 6.86938 30.3466 6.73306 29.8837 6.73403C29.2633 6.73532 28.6688 6.98296 28.2309 7.4225C27.793 7.86204 27.5476 8.45749 27.5486 9.07793ZM9.48753 19.5195C9.49842 25.0497 13.9898 29.5225 19.5187 29.5121C25.0479 29.5016 29.5238 25.0107 29.5134 19.4805C29.5028 13.9503 25.0105 9.47621 19.4806 9.4871C13.9508 9.49799 9.47713 13.99 9.48753 19.5195ZM13 19.5125C12.9974 18.227 13.3762 16.9695 14.0883 15.8992C14.8004 14.8289 15.8139 13.9938 17.0006 13.4994C18.1874 13.0051 19.494 12.8738 20.7554 13.1221C22.0168 13.3704 23.1762 13.9872 24.087 14.8944C24.9978 15.8016 25.6192 16.9586 25.8725 18.2189C26.1258 19.4793 25.9997 20.7865 25.5101 21.9752C25.0205 23.1639 24.1894 24.1807 23.122 24.897C22.0545 25.6134 20.7985 25.9971 19.513 25.9997C18.6593 26.0015 17.8137 25.8351 17.0244 25.5101C16.2351 25.185 15.5175 24.7076 14.9127 24.1052C14.3079 23.5028 13.8277 22.7872 13.4995 21.9991C13.1713 21.2111 13.0016 20.3662 13 19.5125Z" fill="#65AFFF"/>
</svg>
