<svg width="39" height="39" viewBox="0 0 39 39" fill="none" xmlns="http://www.w3.org/2000/svg">
<path d="M7.37917 28.9417C9.00833 27.6958 10.8292 26.7135 12.8417 25.9948C14.8542 25.276 16.9625 24.9167 19.1667 24.9167C21.3708 24.9167 23.4792 25.276 25.4917 25.9948C27.5042 26.7135 29.325 27.6958 30.9542 28.9417C32.0722 27.6319 32.9427 26.1465 33.5656 24.4854C34.1885 22.8243 34.5 21.0514 34.5 19.1667C34.5 14.9181 33.0066 11.3003 30.0198 8.31354C27.033 5.32674 23.4153 3.83333 19.1667 3.83333C14.9181 3.83333 11.3003 5.32674 8.31354 8.31354C5.32674 11.3003 3.83333 14.9181 3.83333 19.1667C3.83333 21.0514 4.14479 22.8243 4.76771 24.4854C5.39062 26.1465 6.26111 27.6319 7.37917 28.9417ZM19.1667 21.0833C17.2819 21.0833 15.6927 20.4365 14.399 19.1427C13.1052 17.849 12.4583 16.2597 12.4583 14.375C12.4583 12.4903 13.1052 10.901 14.399 9.60729C15.6927 8.31354 17.2819 7.66667 19.1667 7.66667C21.0514 7.66667 22.6406 8.31354 23.9344 9.60729C25.2281 10.901 25.875 12.4903 25.875 14.375C25.875 16.2597 25.2281 17.849 23.9344 19.1427C22.6406 20.4365 21.0514 21.0833 19.1667 21.0833ZM19.1667 38.3333C16.5153 38.3333 14.0236 37.8302 11.6917 36.824C9.35972 35.8177 7.33125 34.4521 5.60625 32.7271C3.88125 31.0021 2.51562 28.9736 1.50937 26.6417C0.503125 24.3097 0 21.8181 0 19.1667C0 16.5153 0.503125 14.0236 1.50937 11.6917C2.51562 9.35972 3.88125 7.33125 5.60625 5.60625C7.33125 3.88125 9.35972 2.51562 11.6917 1.50937C14.0236 0.503125 16.5153 0 19.1667 0C21.8181 0 24.3097 0.503125 26.6417 1.50937C28.9736 2.51562 31.0021 3.88125 32.7271 5.60625C34.4521 7.33125 35.8177 9.35972 36.824 11.6917C37.8302 14.0236 38.3333 16.5153 38.3333 19.1667C38.3333 21.8181 37.8302 24.3097 36.824 26.6417C35.8177 28.9736 34.4521 31.0021 32.7271 32.7271C31.0021 34.4521 28.9736 35.8177 26.6417 36.824C24.3097 37.8302 21.8181 38.3333 19.1667 38.3333Z" fill="white"/>
</svg>
