<svg width="39" height="28" viewBox="0 0 39 28" fill="none" xmlns="http://www.w3.org/2000/svg">
<path d="M38.1842 4.29162C37.9639 3.4617 37.5294 2.70422 36.9242 2.09505C36.3191 1.48588 35.5645 1.04641 34.736 0.820625C31.6956 1.93715e-07 19.5 0 19.5 0C19.5 0 7.30437 1.93715e-07 4.26237 0.820625C3.43429 1.0468 2.6801 1.48644 2.07525 2.09557C1.4704 2.7047 1.03609 3.46196 0.81575 4.29162C0 7.35312 0 13.7394 0 13.7394C0 13.7394 0 20.1256 0.81575 23.1871C1.03608 24.0171 1.47059 24.7745 2.07576 25.3837C2.68094 25.9929 3.43554 26.4323 4.264 26.6581C7.30438 27.4788 19.5 27.4788 19.5 27.4788C19.5 27.4788 31.6956 27.4788 34.7376 26.6581C35.5662 26.4325 36.3208 25.9931 36.926 25.3839C37.5312 24.7747 37.9657 24.0171 38.1859 23.1871C39 20.1256 39 13.7394 39 13.7394C39 13.7394 39 7.35312 38.1842 4.29162ZM15.5106 19.5374V7.94138L25.7043 13.7394L15.5106 19.5374Z" fill="#65AFFF"/>
</svg>
